<?xml version="1.0" encoding="UTF-8" standalone="no"?>
<!-- Created by Symbolator http://kevinpt.github.io/symbolator -->
<svg xmlns="http://www.w3.org/2000/svg"
xmlns:xlink="http://www.w3.org/1999/xlink"
xml:space="preserve"
width="284" height="119" viewBox="-105 -20 568.0 239.0" version="1.1">
<style type="text/css">
<![CDATA[
.fnt1 {fill:#000000;
    font-family:Helvetica; font-size:12pt; font-weight:normal; font-style:normal;}
.label {fill:#000;
  text-anchor:middle;
  font-size:16pt; font-weight:bold; font-family:Sans;}
.link {fill: #0D47A1;}
.link:hover {fill: #0D47A1; text-decoration:underline;}
.link:visited {fill: #4A148C;}
]]>
</style>
<defs>
<marker viewBox="0 0 8.0 15.0" refX="0.5" refY="7.5" markerUnits="userSpaceOnUse" orient="auto" markerWidth="8.0" id="clock" markerHeight="15.0">
<g transform="translate(0.5,7.5)"><path d="M 0 -7 L 0 7 L 7 0 z" stroke="#000000" stroke-width="1" fill="#FFFFFF"/>
</g>
</marker>
</defs>
<rect x="-105" y="-20" width="100%" height="100%" fill="white"/><g transform="translate(0,0)">
<rect x="0" y="-15" width="300" height="50" stroke="#646464" stroke-width="1" fill="#C8C8C8"/>
<g transform="translate(0,0)">
<line x1="-20" y1="0" x2="0" y2="0" stroke="#000000" stroke-width="1" fill="none"/>
<text class="fnt1" x="10" y="0" text-anchor="normal" dy="5.0">NCHIPS</text>
</g>
<g transform="translate(0,20)">
<line x1="-20" y1="0" x2="0" y2="0" stroke="#000000" stroke-width="1" marker-end="url(#clock)" fill="none"/>
<text class="fnt1" x="10" y="0" text-anchor="normal" dy="5.0">CLKDIV</text>
</g>
</g>
<rect x="1.0" y="-14.0" width="298.0" height="48.0" stroke="#646464" stroke-width="3" fill="none"/>
<g transform="translate(0,58.0)">
<rect x="0" y="-15" width="300" height="170" stroke="#000000" stroke-width="1" fill="#C5DBFC"/>
<g transform="translate(0,0)">
<line x1="-20" y1="0" x2="0" y2="0" stroke="#000000" stroke-width="1" marker-end="url(#clock)" fill="none"/>
<text class="fnt1" x="10" y="0" text-anchor="normal" dy="5.0">csi_clk</text>
<text class="fnt1" x="-30" y="0" style="fill:#969696" text-anchor="end" dy="5.0">wire</text>
</g>
<g transform="translate(0,20)">
<line x1="-20" y1="0" x2="0" y2="0" stroke="#000000" stroke-width="1" fill="none"/>
<text class="fnt1" x="10" y="0" text-anchor="normal" dy="5.0">csi_reset</text>
<text class="fnt1" x="-30" y="0" style="fill:#969696" text-anchor="end" dy="5.0">wire</text>
</g>
<g transform="translate(0,40)">
<line x1="-20" y1="0" x2="0" y2="0" stroke="#000000" stroke-width="3" fill="none"/>
<text class="fnt1" x="10" y="0" text-anchor="normal" dy="5.0">avs_s0_address</text>
<text class="fnt1" x="-30" y="0" style="fill:#969696" text-anchor="end" dy="5.0">wire <tspan fill="#039BE5">[1:0]</tspan></text>
</g>
<g transform="translate(0,60)">
<line x1="-20" y1="0" x2="0" y2="0" stroke="#000000" stroke-width="3" fill="none"/>
<text class="fnt1" x="10" y="0" text-anchor="normal" dy="5.0">avs_s0_byteenable</text>
<text class="fnt1" x="-30" y="0" style="fill:#969696" text-anchor="end" dy="5.0">wire <tspan fill="#039BE5">[3:0]</tspan></text>
</g>
<g transform="translate(0,80)">
<line x1="-20" y1="0" x2="0" y2="0" stroke="#000000" stroke-width="1" fill="none"/>
<text class="fnt1" x="10" y="0" text-anchor="normal" dy="5.0">avs_s0_read</text>
<text class="fnt1" x="-30" y="0" style="fill:#969696" text-anchor="end" dy="5.0">wire</text>
</g>
<g transform="translate(0,100)">
<line x1="-20" y1="0" x2="0" y2="0" stroke="#000000" stroke-width="1" fill="none"/>
<text class="fnt1" x="10" y="0" text-anchor="normal" dy="5.0">avs_s0_write</text>
<text class="fnt1" x="-30" y="0" style="fill:#969696" text-anchor="end" dy="5.0">wire</text>
</g>
<g transform="translate(0,120)">
<line x1="-20" y1="0" x2="0" y2="0" stroke="#000000" stroke-width="3" fill="none"/>
<text class="fnt1" x="10" y="0" text-anchor="normal" dy="5.0">avs_s0_writedata</text>
<text class="fnt1" x="-30" y="0" style="fill:#969696" text-anchor="end" dy="5.0">wire <tspan fill="#039BE5">[31:0]</tspan></text>
</g>
<g transform="translate(0,140)">
<line x1="-20" y1="0" x2="0" y2="0" stroke="#000000" stroke-width="1" fill="none"/>
<text class="fnt1" x="10" y="0" text-anchor="normal" dy="5.0">coe_SI</text>
<text class="fnt1" x="-30" y="0" style="fill:#969696" text-anchor="end" dy="5.0">wire</text>
</g>
<g transform="translate(300,0)">
<line x1="20" y1="0" x2="0" y2="0" stroke="#000000" stroke-width="3" fill="none"/>
<text class="fnt1" x="-10" y="0" text-anchor="end" dy="5.0">avs_s0_readdata</text>
<text class="fnt1" x="30" y="0" style="fill:#969696" text-anchor="normal" dy="5.0">wire <tspan fill="#039BE5">[31:0]</tspan></text>
</g>
<g transform="translate(300,20)">
<line x1="20" y1="0" x2="0" y2="0" stroke="#000000" stroke-width="1" fill="none"/>
<text class="fnt1" x="-10" y="0" text-anchor="end" dy="5.0">avs_s0_waitrequest</text>
<text class="fnt1" x="30" y="0" style="fill:#969696" text-anchor="normal" dy="5.0">wire</text>
</g>
<g transform="translate(300,40)">
<line x1="20" y1="0" x2="0" y2="0" stroke="#000000" stroke-width="1" fill="none"/>
<text class="fnt1" x="-10" y="0" text-anchor="end" dy="5.0">coe_SCK</text>
<text class="fnt1" x="30" y="0" style="fill:#969696" text-anchor="normal" dy="5.0">wire</text>
</g>
<g transform="translate(300,60)">
<line x1="20" y1="0" x2="0" y2="0" stroke="#000000" stroke-width="1" fill="none"/>
<text class="fnt1" x="-10" y="0" text-anchor="end" dy="5.0">coe_SO</text>
<text class="fnt1" x="30" y="0" style="fill:#969696" text-anchor="normal" dy="5.0">wire</text>
</g>
<g transform="translate(300,80)">
<line x1="20" y1="0" x2="0" y2="0" stroke="#000000" stroke-width="3" fill="none"/>
<text class="fnt1" x="-10" y="0" text-anchor="end" dy="5.0">coe_CS</text>
<text class="fnt1" x="30" y="0" style="fill:#969696" text-anchor="normal" dy="5.0">wire <tspan fill="#039BE5">[NCHIPS-1:0]</tspan></text>
</g>
</g>
<rect x="1.0" y="44.0" width="298.0" height="168.0" stroke="#000000" stroke-width="3" fill="none"/>
</svg>