<?xml version="1.0" encoding="UTF-8" standalone="no"?>
<!-- Created by Symbolator http://kevinpt.github.io/symbolator -->
<svg xmlns="http://www.w3.org/2000/svg"
xmlns:xlink="http://www.w3.org/1999/xlink"
xml:space="preserve"
width="185" height="99" viewBox="-105 -20 370.0 199.0" version="1.1">
<style type="text/css">
<![CDATA[
.fnt1 {fill:#000000;
    font-family:Helvetica; font-size:12pt; font-weight:normal; font-style:normal;}
.label {fill:#000;
  text-anchor:middle;
  font-size:16pt; font-weight:bold; font-family:Sans;}
.link {fill: #0D47A1;}
.link:hover {fill: #0D47A1; text-decoration:underline;}
.link:visited {fill: #4A148C;}
]]>
</style>
<defs>
<marker viewBox="0 0 8.0 15.0" refX="0.5" refY="7.5" markerUnits="userSpaceOnUse" orient="auto" markerWidth="8.0" id="clock" markerHeight="15.0">
<g transform="translate(0.5,7.5)"><path d="M 0 -7 L 0 7 L 7 0 z" stroke="#000000" stroke-width="1" fill="#FFFFFF"/>
</g>
</marker>
</defs>
<rect x="-105" y="-20" width="100%" height="100%" fill="white"/><g transform="translate(0,0)">
<rect x="0" y="-15" width="160" height="30" stroke="#646464" stroke-width="1" fill="#C8C8C8"/>
<g transform="translate(0,0)">
<line x1="-20" y1="0" x2="0" y2="0" stroke="#000000" stroke-width="1" marker-end="url(#clock)" fill="none"/>
<text class="fnt1" x="10" y="0" text-anchor="normal" dy="5.0">CLKDIV</text>
</g>
</g>
<rect x="1.0" y="-14.0" width="158.0" height="28.0" stroke="#646464" stroke-width="3" fill="none"/>
<g transform="translate(0,38.0)">
<rect x="0" y="-15" width="160" height="150" stroke="#000000" stroke-width="1" fill="#C5DBFC"/>
<g transform="translate(0,0)">
<line x1="-20" y1="0" x2="0" y2="0" stroke="#000000" stroke-width="1" marker-end="url(#clock)" fill="none"/>
<text class="fnt1" x="10" y="0" text-anchor="normal" dy="5.0">clk</text>
<text class="fnt1" x="-30" y="0" style="fill:#969696" text-anchor="end" dy="5.0">wire</text>
</g>
<g transform="translate(0,20)">
<line x1="-20" y1="0" x2="0" y2="0" stroke="#000000" stroke-width="1" fill="none"/>
<text class="fnt1" x="10" y="0" text-anchor="normal" dy="5.0">reset</text>
<text class="fnt1" x="-30" y="0" style="fill:#969696" text-anchor="end" dy="5.0">wire</text>
</g>
<g transform="translate(0,40)">
<line x1="-20" y1="0" x2="0" y2="0" stroke="#000000" stroke-width="3" fill="none"/>
<text class="fnt1" x="10" y="0" text-anchor="normal" dy="5.0">cnt</text>
<text class="fnt1" x="-30" y="0" style="fill:#969696" text-anchor="end" dy="5.0">wire <tspan fill="#039BE5">[5:0]</tspan></text>
</g>
<g transform="translate(0,60)">
<line x1="-20" y1="0" x2="0" y2="0" stroke="#000000" stroke-width="1" fill="none"/>
<text class="fnt1" x="10" y="0" text-anchor="normal" dy="5.0">write</text>
<text class="fnt1" x="-30" y="0" style="fill:#969696" text-anchor="end" dy="5.0">wire</text>
</g>
<g transform="translate(0,80)">
<line x1="-20" y1="0" x2="0" y2="0" stroke="#000000" stroke-width="3" fill="none"/>
<text class="fnt1" x="10" y="0" text-anchor="normal" dy="5.0">writedata</text>
<text class="fnt1" x="-30" y="0" style="fill:#969696" text-anchor="end" dy="5.0">wire <tspan fill="#039BE5">[31:0]</tspan></text>
</g>
<g transform="translate(0,100)">
<line x1="-20" y1="0" x2="0" y2="0" stroke="#000000" stroke-width="1" fill="none"/>
<text class="fnt1" x="10" y="0" text-anchor="normal" dy="5.0">read</text>
<text class="fnt1" x="-30" y="0" style="fill:#969696" text-anchor="end" dy="5.0">wire</text>
</g>
<g transform="translate(0,120)">
<line x1="-20" y1="0" x2="0" y2="0" stroke="#000000" stroke-width="1" fill="none"/>
<text class="fnt1" x="10" y="0" text-anchor="normal" dy="5.0">si</text>
<text class="fnt1" x="-30" y="0" style="fill:#969696" text-anchor="end" dy="5.0">wire</text>
</g>
<g transform="translate(160,0)">
<line x1="20" y1="0" x2="0" y2="0" stroke="#000000" stroke-width="3" fill="none"/>
<text class="fnt1" x="-10" y="0" text-anchor="end" dy="5.0">readdata</text>
<text class="fnt1" x="30" y="0" style="fill:#969696" text-anchor="normal" dy="5.0">wire <tspan fill="#039BE5">[31:0]</tspan></text>
</g>
<g transform="translate(160,20)">
<line x1="20" y1="0" x2="0" y2="0" stroke="#000000" stroke-width="1" fill="none"/>
<text class="fnt1" x="-10" y="0" text-anchor="end" dy="5.0">busy</text>
<text class="fnt1" x="30" y="0" style="fill:#969696" text-anchor="normal" dy="5.0">wire</text>
</g>
<g transform="translate(160,40)">
<line x1="20" y1="0" x2="0" y2="0" stroke="#000000" stroke-width="1" fill="none"/>
<text class="fnt1" x="-10" y="0" text-anchor="end" dy="5.0">sck</text>
<text class="fnt1" x="30" y="0" style="fill:#969696" text-anchor="normal" dy="5.0">wire</text>
</g>
<g transform="translate(160,60)">
<line x1="20" y1="0" x2="0" y2="0" stroke="#000000" stroke-width="1" fill="none"/>
<text class="fnt1" x="-10" y="0" text-anchor="end" dy="5.0">so</text>
<text class="fnt1" x="30" y="0" style="fill:#969696" text-anchor="normal" dy="5.0">wire</text>
</g>
</g>
<rect x="1.0" y="24.0" width="158.0" height="148.0" stroke="#000000" stroke-width="3" fill="none"/>
</svg>